<?xml version="1.0" standalone="no"?><!DOCTYPE svg PUBLIC "-//W3C//DTD SVG 1.1//EN" "http://www.w3.org/Graphics/SVG/1.1/DTD/svg11.dtd"><svg t="1740643939007" class="icon" viewBox="0 0 1429 1024" version="1.1" xmlns="http://www.w3.org/2000/svg" p-id="10319" xmlns:xlink="http://www.w3.org/1999/xlink" width="279.1015625" height="200"><path d="M1429.830082 823.380743c0 88.98175-51.846444 120.045312-115.796098 120.045311S1198.237885 912.372561 1198.237885 823.380743c0-88.97168 115.796098-202.169918 115.796099-202.169919S1429.830082 734.409062 1429.830082 823.380743z" fill="#EFF3FC" p-id="10320"></path><path d="M1306.92511 929.359346l1.228446-74.351165L1359.3455 763.015733l-51.000629 80.322215 0.553807-33.42983 35.282568-66.557583-35.141598 57.706734 1.006922-60.133418 37.769667-52.984266-37.618628 43.529263 0.624292-110.258024-3.90686 145.963499 0.322215-6.021397-38.414097-57.74701 37.799874 69.306482-3.584644 67.161737-0.100692-1.782253L1258.653241 777.314034l44.143487 67.071114-0.443046 8.397734-0.080554 0.1309 0.040277 0.684708-9.082442 170.381372h12.133417l1.449969-88.005035 44.042794-66.899937-43.932033 60.284456z" fill="#858585" p-id="10321"></path><path d="M83.634991 218.441787H1105.097546v785.893015H83.634991z" fill="#FFFFFF" p-id="10322"></path><path d="M1107.614852 1004.334802H86.152297V218.441787H1107.614852v785.903084z m-1016.427942-5.034613H1102.580239V223.4764H91.18691v775.833858z" fill="#3B3B3B" p-id="10323"></path><path d="M159.989931 279.843927h886.091881v663.098804h-886.091881z" fill="#E9EAFF" p-id="10324"></path><path d="M91.348018 223.486469h1011.50409v80.553808H91.348018zM0 560.795469h221.52297v332.284455H0z" fill="#5983FF" p-id="10325"></path><path d="M50.34613 611.141598h123.066079V721.661422H50.34613zM50.34613 762.190057h120.830711v10.069226H50.34613z" fill="#FFFFFF" p-id="10326"></path><path d="M140.969163 807.491504H50.34613v-10.069226h90.623033v10.069226z" fill="#FFFFFF" p-id="10327"></path><path d="M50.34613 832.674638h120.830711v10.069226H50.34613zM153.797357 236.858402h0.080554a18.426683 18.426683 0 1 1 0 36.843297h-0.080554a18.426683 18.426683 0 0 1 0-36.843297zM215.330396 236.858402h0.080554a18.426683 18.426683 0 1 1 0 36.843297h-0.080554a18.426683 18.426683 0 1 1 0-36.843297z" fill="#FFFFFF" p-id="10328"></path><path d="M80.110761 1010.376337h67.564506v-12.083071h-55.481434v-49.218376h-12.083072v61.301447zM1113.656388 1010.376337h-67.574576v-12.083071h55.491505v-49.218376h12.083071v61.301447zM1113.656388 212.621775h-67.574576v12.083071h55.491505v49.218376h12.083071v-61.301447z" fill="#3B3B3B" p-id="10329"></path><path d="M80.110761 213.507867h67.564506v12.083071h-55.481434v49.218376h-12.083072v-61.301447z" fill="#3B3B3B" p-id="10330"></path><path d="M312.19635 102.645689a65.449969 65.449969 0 0 0-65.449969-65.449968c-36.148521 0-66.920076 43.438641-65.449968 81.41976v59.549403h130.899937v-75.519195zM563.916929 490.945249H412.898678a70.484581 70.484581 0 0 0-70.484581 70.484581v70.484582h291.987413v-70.484582a70.484581 70.484581 0 0 0-70.484581-70.484581z" fill="#5983FF" p-id="10331"></path><path d="M1100.09314 651.992448c-2.154814-27.519194-15.295154-59.307741-37.437382-76.002517-86.414097-56.790434-295.310258 70.263059-293.71932-128.573946 5.840151-165.628697 9.696665-332.787917-35.181875-398.197609-2.013845-3.000629-7.924481-8.57898-12.797987-9.213341-0.332284-0.422907-160.080554-1.16803-479.234738-2.235369 26.53241-0.714915 43.166772 19.433606 49.893014 60.475771 7.592196 46.288232 4.954059 124.667086 7.199497 251.831341-0.765261 91.891756 0.231592 122.492133-4.68219 221.694147 4.349906 71.572058 80.332284 78.761485 141.462555 32.926369 26.059157-18.869729 43.801133-44.163625 70.081812-61.563247 10.250472-4.68219 20.692259-13.422278 38.001259-16.110762 15.003147-2.446822 42.753933-1.107615 58.53241 20.984267 8.256765 11.499056 16.755192 29.553178 20.440529 63.09377 2.054122 18.527376 2.920076 47.315293 2.839521 78.43927-0.322215 16.634361-0.443046 45.573317 0.422908 86.293266h474.039018c2.195091-45.91567 3.463814-81.409692 0.140969-123.84141z" fill="#FFFFFF" p-id="10332"></path><path d="M1102.358716 778.361233H623.446193l-0.050347-2.46696c-0.966646-45.130271-0.674638-73.505349-0.422907-86.404028 0.080554-33.137823-0.90623-60.898678-2.819383-78.117054-2.980491-27.086218-9.525488-47.325362-19.987414-61.895532-17.721838-24.830711-49.82253-21.004405-56.085588-19.957206-11.96224 1.852738-20.611705 6.746381-28.244179 11.076149-3.141598 1.772184-6.101951 3.453744-9.10258 4.833228-13.331655 8.860919-24.448081 19.866583-36.229075 31.516677-10.310887 10.210195-20.964128 20.762744-33.42983 29.784771-37.004405 27.750787-80.251731 36.792952-110.157332 22.927627-14.922593-6.89742-33.157961-22.524858-35.302706-57.736942 3.89679-78.821901 4.067967-113.661422 4.359975-171.378225 0.080554-14.952801 0.161108-31.395846 0.322215-50.477029-0.684707-38.514789-0.90623-72.599119-1.117684-102.665828-0.453115-67.745752-0.795469-116.692259-6.041535-148.742605-6.303335-38.393958-20.843298-57.525488-44.425425-58.361234L241.711768 40.276904l-0.060415-5.034613a47.728131 47.728131 0 0 1 3.141599 0c410.41158 1.389553 467.715544 1.69163 476.425424 2.658275l0.060416-0.402769c5.940843 0.765261 12.415356 7.088735 14.57017 10.310888 43.700441 63.718062 41.988672 218.703587 35.604782 399.687854-0.342354 42.743864 9.001888 72.468219 28.556325 90.804279 31.123977 29.200755 84.903713 25.324103 136.941473 21.538074 46.842039-3.363121 95.254877-6.887351 127.09377 14.026432 21.004405 15.838892 36.088106 46.388924 38.555066 77.92574 3.342983 42.673379 2.054122 78.378855-0.1309 124.153555l-0.110762 2.406545z m-473.988672-5.034612h469.185651c2.104468-44.455632 3.282568-79.506608 0.030208-121.132788-1.933291-24.70988-13.955947-57.243549-36.450598-74.210195-30.288232-19.876652-77.835116-16.443046-123.821271-13.110133-53.115167 3.826306-108.002517 7.813719-140.74764-22.88735-20.641913-19.353052-30.499685-50.295784-30.147262-94.590309 6.353682-180.138452 8.125865-334.278162-34.73883-396.757709-1.963499-2.940214-7.350535-7.652612-11.05601-8.135934l-0.100692-0.020139c-6.414097-0.402769-160.020138-1.107615-456.71995-2.124606 15.275016 8.558842 25.424795 27.791064 30.298301 57.475141 5.316551 32.453115 5.648836 81.56073 6.11202 149.528005 0.201385 30.056639 0.432977 64.1309 1.107615 102.675897-0.151038 19.151668-0.231592 35.584644-0.312146 50.537445-0.292008 57.787288-0.463184 92.667086-4.370044 171.31781 1.580868 25.636249 12.777848 44.133417 32.3927 53.20579 28.244179 13.049717 69.477659 4.269352 105.052234-22.414097 12.183763-8.820642 22.706104-19.232222 32.876022-29.311517 11.438641-11.307741 23.259912-23.01825 37.33669-32.332284 3.151668-1.470107 6.021397-3.101322 9.062304-4.82316 8.005035-4.541221 17.077407-9.686595 29.935808-11.680302 6.746381-1.087476 41.505349-5.256136 60.959094 22.011328 10.985525 15.285085 17.82253 36.309629 20.903713 64.271869 1.923222 17.409692 2.930145 45.361863 2.849591 78.731278-0.251731 12.657017-0.533669 40.166142 0.362492 83.77596z" fill="#3B3B3B" p-id="10333"></path><path d="M792.166142 681.273757a141.553178 140.949025 90 1 0 281.898049 0 141.553178 140.949025 90 1 0-281.898049 0Z" fill="#FFFFFF" p-id="10334"></path><path d="M1045.870359 813.694147l89.273757 91.327879 18.789175-18.265575-89.263687-91.32788-18.799245 18.265576z" fill="#FFFFFF" p-id="10335"></path><path d="M1073.097546 786.809314l92.425424 94.217747c3.342983 3.423537 3.342983 8.961611 0 12.385148l-26.79421 27.287602a8.538704 8.538704 0 0 1-6.101951 2.587791 8.508496 8.508496 0 0 1-6.061674-2.577722l-92.435494-94.187539a8.961611 8.961611 0 0 1 0-12.425425l7.451227-7.592196-16.473253-16.755192c-25.716803 23.370673-59.660164 37.628697-96.775331 37.628697-80.2618 0-145.56073-66.567653-145.56073-148.400251 0-81.82253 65.29893-148.390183 145.56073-148.390183 80.302077 0 145.601007 66.567653 145.601007 148.390183a149.427313 149.427313 0 0 1-36.662051 98.33606l16.473253 16.795469 7.189428-7.300189a8.438011 8.438011 0 0 1 12.163625 0zM928.332284 548.108244c-70.776589 0-128.382631 58.703587-128.38263 130.86973 0 72.146004 57.606042 130.879799 128.38263 130.879798 70.816866 0 128.412838-58.733795 128.412839-130.879798 0-72.176211-57.595972-130.869729-128.412839-130.86973z m0 234.612964c59.106356 0 107.015733-46.258024 107.015734-103.340465 0-57.072373-47.909377-103.340466-107.015734-103.340466s-107.015733 46.268093-107.015733 103.340466c0 57.092511 47.899308 103.350535 107.015733 103.350535z m124.032725 37.588421l80.251731 81.82253 14.640655-14.932662-80.2618-81.782253-14.630586 14.902454z" fill="#3B3B3B" p-id="10336"></path><path d="M1035.348018 679.380743a104.035242 104.035242 0 0 1-8.156073 40.417872 105.374449 105.374449 0 0 1-35.111391 44.405287 106.713656 106.713656 0 0 1-27.690371 14.610447 109.40214 109.40214 0 0 1-20.359975 5.034613 107.942102 107.942102 0 0 1-36.581498-0.886092 106.945249 106.945249 0 0 1-20.078037-6.011328 106.844556 106.844556 0 0 1-26.935179-15.939585 106.310887 106.310887 0 0 1-28.848332-36.480805 104.518565 104.518565 0 0 1-2.134676-85.568282 104.891126 104.891126 0 0 1 19.584644-30.509755 106.049087 106.049087 0 0 1 24.266835-19.655129 107.539333 107.539333 0 0 1 39.320327-13.885462 108.385148 108.385148 0 0 1 70.716174 13.885462 107.287602 107.287602 0 0 1 27.710509 23.582127 105.716803 105.716803 0 0 1 18.033984 31.415985 104.226558 104.226558 0 0 1 6.263059 35.584645z" fill="#D8D9EA" p-id="10337"></path><path d="M514.617999 299.176841c-8.337319 0-15.103839 5.195721-21.628698 12.203902-2.899937-7.612335-8.45815-12.203902-18.366268-12.203902-8.216488 0-14.862177 4.954059-20.541221 10.995594h-0.362492l-1.087476-9.303964h-11.358087v66.456891h13.774701V320.201385c5.558213-6.041536 10.512272-9.062303 14.983008-9.062304 7.612335 0 11.116425 4.591567 11.116426 16.070485v40.115796h13.895532V320.201385c5.558213-6.041536 10.391441-9.062303 14.983008-9.062304 7.491504 0 11.116425 4.591567 11.116425 16.070485v40.115796h13.895532v-41.807426c0-16.9163-6.524858-26.341095-20.42039-26.341095zM398.620516 299.176841c-15.587162 0-30.328508 13.412209-30.328508 35.040906 0 21.870359 14.378855 34.678414 32.38263 34.678414 8.699811 0 16.312146-2.899937 22.474512-7.008181l-4.833228-8.820642c-4.833228 3.141598-9.908118 4.954059-15.828823 4.954059-11.478918 0-19.453744-7.612335-20.541221-20.299559h43.136564c0.362492-1.570799 0.604154-4.349906 0.604153-7.008182 0-18.849591-9.424795-31.536816-27.066079-31.536815z m-16.795469 28.99937c1.329138-11.720579 8.699811-18.124607 17.03713-18.124606 9.666457 0 14.862177 6.645689 14.862178 18.124606H381.825047zM716.405286 300.868471l-10.633102 34.195091-5.195721 18.72876h-0.604153c-2.054122-6.162366-4.108244-12.808055-6.041536-18.72876l-12.324732-34.195091h-14.258024l26.341095 65.973568-1.329138 4.591567c-2.416614 7.129012-6.645689 12.445563-13.895532 12.445563-1.69163 0-3.624921-0.604154-4.833228-0.966645l-2.658276 10.874764c2.295784 0.845815 4.954059 1.329138 8.337319 1.329137 14.016362 0 21.024544-9.545626 26.220264-23.80365l24.407804-70.444304h-13.53304zM588.324733 299.176841c-7.370673 0-14.620516 4.108244-20.420391 8.941472h-0.362492l-1.087476-7.249842h-11.358087v93.402139h13.774701V372.762744l-0.362492-11.358087c5.679043 4.833228 11.599748 7.491504 17.520453 7.491504 14.983008 0 28.636879-13.049717 28.636879-35.886721 0-20.42039-9.424795-33.832599-26.341095-33.832599z m-4.95406 58.240403c-4.108244 0-9.303965-1.570799-14.499685-6.041536v-32.503461c5.679043-5.437382 10.633103-8.095658 15.828823-8.095658 11.116425 0 15.587162 8.57898 15.587162 22.474512 0 15.587162-7.249843 24.166142-16.9163 24.166143zM654.17747 357.779736c-6.887351 0-9.666457-4.108244-9.666457-12.083071v-33.711769h17.278792V300.868471h-17.278792v-18.366268h-11.720579l-1.570799 18.366268-10.27061 0.724984v10.391441h9.666456v33.590938c0 14.016362 5.195721 23.320327 20.178729 23.320327 4.833228 0 9.303965-1.208307 13.049717-2.416614l-2.537445-10.270611c-1.933291 0.845815-4.833228 1.570799-7.129012 1.5708z" fill="#CECFDB" p-id="10338"></path><path d="M514.617999 291.262429c-8.337319 0-15.103839 5.195721-21.628698 12.203902-2.899937-7.612335-8.45815-12.203902-18.366268-12.203902-8.216488 0-14.862177 4.954059-20.541221 10.995595h-0.362492l-1.087476-9.303965h-11.358087v66.456891h13.774701v-47.123977c5.558213-6.041536 10.512272-9.062303 14.983008-9.062303 7.612335 0 11.116425 4.591567 11.116426 16.070484v40.115796h13.895532v-47.123977c5.558213-6.041536 10.391441-9.062303 14.983008-9.062303 7.491504 0 11.116425 4.591567 11.116425 16.070484v40.115796h13.895532v-41.807426c0-16.9163-6.524858-26.341095-20.42039-26.341095zM398.620516 291.262429c-15.587162 0-30.328508 13.412209-30.328508 35.040906 0 21.870359 14.378855 34.678414 32.38263 34.678415 8.699811 0 16.312146-2.899937 22.474512-7.008182l-4.833228-8.820642c-4.833228 3.141598-9.908118 4.954059-15.828823 4.95406-11.478918 0-19.453744-7.612335-20.541221-20.29956h43.136564c0.362492-1.570799 0.604154-4.349906 0.604153-7.008181 0-18.849591-9.424795-31.536816-27.066079-31.536816z m-16.795469 28.999371c1.329138-11.720579 8.699811-18.124607 17.03713-18.124607 9.666457 0 14.862177 6.645689 14.862178 18.124607H381.825047zM716.405286 292.954059l-10.633102 34.195091-5.195721 18.728761h-0.604153c-2.054122-6.162366-4.108244-12.808055-6.041536-18.728761l-12.324732-34.195091h-14.258024l26.341095 65.973568-1.329138 4.591567c-2.416614 7.129012-6.645689 12.445563-13.895532 12.445564-1.69163 0-3.624921-0.604154-4.833228-0.966646l-2.658276 10.874764c2.295784 0.845815 4.954059 1.329138 8.337319 1.329138 14.016362 0 21.024544-9.545626 26.220264-23.80365l24.407804-70.444305h-13.53304zM588.324733 291.262429c-7.370673 0-14.620516 4.108244-20.420391 8.941473h-0.362492l-1.087476-7.249843h-11.358087v93.40214h13.774701v-21.507867l-0.362492-11.358087c5.679043 4.833228 11.599748 7.491504 17.520453 7.491505 14.983008 0 28.636879-13.049717 28.636879-35.886722 0-20.42039-9.424795-33.832599-26.341095-33.832599z m-4.95406 58.240403c-4.108244 0-9.303965-1.570799-14.499685-6.041536v-32.503461c5.679043-5.437382 10.633103-8.095658 15.828823-8.095658 11.116425 0 15.587162 8.57898 15.587162 22.474513 0 15.587162-7.249843 24.166142-16.9163 24.166142zM654.17747 349.865324c-6.887351 0-9.666457-4.108244-9.666457-12.083071v-33.711768h17.278792v-11.116426h-17.278792V274.587791h-11.720579l-1.570799 18.366268-10.27061 0.724984v10.391442h9.666456v33.590937c0 14.016362 5.195721 23.320327 20.178729 23.320328 4.833228 0 9.303965-1.208307 13.049717-2.416615l-2.537445-10.27061c-1.933291 0.845815-4.833228 1.570799-7.129012 1.570799z" fill="#E9EAFF" p-id="10339"></path></svg>