<?xml version="1.0" standalone="no"?><!DOCTYPE svg PUBLIC "-//W3C//DTD SVG 1.1//EN" "http://www.w3.org/Graphics/SVG/1.1/DTD/svg11.dtd"><svg t="1747706966630" class="icon" viewBox="0 0 1024 1024" version="1.1" xmlns="http://www.w3.org/2000/svg" p-id="10716" xmlns:xlink="http://www.w3.org/1999/xlink" width="200" height="200"><path d="M190.976 219.072v654.4c0 13.312 11.264 24 25.152 24a24.576 24.576 0 0 0 25.088-24V640.64c43.328-27.52 131.2-79.104 181.824-79.104 87.808 0 158.72 96 246.528 96q58.56 0 200.256-96v-384q-136 96-200.256 96c-82.112 0-164.288-96-246.4-96-50.752 0-138.624 51.584-181.952 79.104v-37.504a46.72 46.72 0 0 0 13.44-72.448 51.84 51.84 0 0 0-77.056 0 46.72 46.72 0 0 0 13.376 72.448z" fill="#666666" p-id="10717"></path></svg>