<svg xmlns="http://www.w3.org/2000/svg" xmlns:xlink="http://www.w3.org/1999/xlink" fill="none" version="1.1" width="18" height="18" viewBox="0 0 18 18"><g><g><path d="M5.658166093749999,9.42573L8.24558609375,12.0736C8.42114609375,12.25263,8.65472609375,12.35139,8.90283609375,12.35139C9.15151609375,12.35139,9.38473609375,12.25263,9.56008609375,12.07319L12.14750609375,9.42573C12.34955609375,9.21889,12.34955609375,8.88258,12.14750609375,8.675799999999999C12.04964609375,8.57564,11.91889609375,8.52075,11.78049609375,8.52075C11.64210609375,8.52075,11.51215609375,8.57565,11.41429609375,8.675799999999999L9.42095609375,10.71571L9.42099609375,3.530293C9.42099609375,3.237804,9.188566093750001,3,8.90280609375,3C8.61704609375,3,8.38468609375,3.237895,8.38468609375,3.530293L8.384706093750001,10.71612L6.39137609375,8.675799999999999C6.29351609375,8.57564,6.16354609375,8.52075,6.02516609375,8.52075C5.8867660937499995,8.52075,5.75604609375,8.57566,5.658166093749999,8.675799999999999C5.560286093749999,8.77595,5.5070460937500005,8.90936,5.5070460937500005,9.05097C5.5070460937500005,9.19259,5.56030609375,9.32559,5.658166093749999,9.42573ZM12.50341609375,4.40234C12.21765609375,4.40234,11.98583609375,4.64018,11.98583609375,4.93262C11.98583609375,5.2250499999999995,12.21773609375,5.46289,12.50341609375,5.46289C13.12453609375,5.46289,13.63039609375,5.980090000000001,13.63039609375,6.61572L13.63039609375,12.78662C13.63039609375,13.4223,13.12452609375,13.9395,12.50341609375,13.9395L5.49658609375,13.9395C4.87544609375,13.9395,4.36962609375,13.4223,4.36962609375,12.78662L4.36962609375,6.61572C4.36962609375,5.98008,4.87540609375,5.46289,5.49658609375,5.46289C5.78234609375,5.46289,6.01415609375,5.2250499999999995,6.01415609375,4.93262C6.01415609375,4.64018,5.78226609375,4.40234,5.49658609375,4.40234C4.30404009375,4.40234,3.33349609375,5.39527,3.33349609375,6.61572L3.33349609375,12.78662C3.33349609375,14.007,4.30400209375,15,5.49658609375,15L12.50341609375,15C13.69599609375,15,14.66649609375,14.0071,14.66649609375,12.78662L14.66649609375,6.61572C14.66649609375,5.395300000000001,13.69599609375,4.40234,12.50341609375,4.40234Z" fill="#868D9C" fill-opacity="1" style="mix-blend-mode:passthrough"/><path d="M5.60452609375,8.623380000000001Q5.4320460937499995,8.79985,5.4320460937499995,9.05097Q5.4320460937499995,9.301639999999999,5.60452609375,9.47815L8.19193609375,12.12601Q8.486496093749999,12.42639,8.90283609375,12.42639Q9.31979609375,12.42639,9.61372609375,12.1256L12.20113609375,9.47815Q12.37404609375,9.30116,12.37404609375,9.050740000000001Q12.37404609375,8.80032,12.20114609375,8.62339Q12.02760609375,8.44575,11.78049609375,8.44575Q11.53423609375,8.44575,11.36065609375,8.62339L9.49595609375,10.53164L9.49599609375,3.530293Q9.49599609375,3.280374,9.32269609375,3.103044Q9.14870609375,2.9249999,8.90280609375,2.925Q8.656916093749999,2.925,8.48293609375,3.103086Q8.309686093749999,3.280426,8.309686093749999,3.530293L8.30970609375,10.532029999999999L6.4450160937500005,8.62339Q6.27147609375,8.44575,6.02516609375,8.44575Q5.77815609375,8.44575,5.60452609375,8.623380000000001ZM5.71180609375,9.37332Q5.58204609375,9.24052,5.58204609375,9.05097Q5.58204609375,8.86098,5.711796093749999,8.72823Q5.84128609375,8.595749999999999,6.02516609375,8.595749999999999Q6.20831609375,8.595749999999999,6.33772609375,8.72822L8.45970609375,10.900210000000001L8.459686093750001,3.530293Q8.459686093750001,3.3415369999999998,8.59023609375,3.207909Q8.72007609375,3.075,8.90280609375,3.075Q9.08556609375,3.075,9.215416093750001,3.207882Q9.34599609375,3.341497,9.34599609375,3.530292L9.34595609375,10.89977L11.46793609375,8.72822Q11.59738609375,8.595749999999999,11.78049609375,8.595749999999999Q11.96444609375,8.595749999999999,12.09385609375,8.72822Q12.22404609375,8.86145,12.22404609375,9.050740000000001Q12.22404609375,9.24005,12.09386609375,9.37331L9.50643609375,12.02077Q9.25665609375,12.27639,8.90283609375,12.27639Q8.54948609375,12.27639,8.29922609375,12.02118L5.71180609375,9.37332ZM14.74149609375,12.78662L14.74149609375,6.61572Q14.74149609375,5.66986,14.08579609375,4.99895Q13.42939609375,4.3273399999999995,12.50341609375,4.3273399999999995Q12.25754609375,4.3273399999999995,12.08378609375,4.50544Q11.91084609375,4.68271,11.91083609375,4.93262Q11.91083609375,5.18252,12.08381609375,5.3598Q12.25759609375,5.53789,12.50341609375,5.53789Q12.93773609375,5.53789,13.24618609375,5.85338Q13.55539609375,6.16962,13.55539609375,6.61572L13.55539609375,12.78662Q13.55539609375,13.2327,13.24618609375,13.549Q12.93773609375,13.8645,12.50341609375,13.8645L5.49658609375,13.8645Q5.06225609375,13.8645,4.75380609375,13.549Q4.44462609375,13.2327,4.44462609375,12.78662L4.44462609375,6.61572Q4.44462609375,6.1696,4.75379609375,5.85337Q5.0622260937500005,5.53789,5.49658609375,5.53789Q5.74245609375,5.53789,5.91621609375,5.35979Q6.089156093750001,5.18253,6.089156093750001,4.93262Q6.089156093750001,4.68272,5.9161860937499995,4.50544Q5.7424060937500006,4.3273399999999995,5.49658609375,4.3273399999999995Q4.57057609375,4.3273399999999995,3.91419809375,4.99894Q3.25849609375,5.66985,3.25849609375,6.61572L3.25849609375,12.78662Q3.25849609375,13.7325,3.91418309375,14.4034Q4.57056609375,15.075,5.49658609375,15.075L12.50341609375,15.075Q13.42939609375,15.075,14.08579609375,14.4034Q14.74149609375,13.7325,14.74149609375,12.78662ZM13.97849609375,5.10379Q14.59149609375,5.73099,14.59149609375,6.61572L14.59149609375,12.78662Q14.59149609375,13.6714,13.97849609375,14.2986Q13.36629609375,14.925,12.50341609375,14.925L5.49658609375,14.925Q4.63370609375,14.925,4.02145909375,14.2985Q3.40849609375,13.6714,3.40849609375,12.78662L3.40849609375,6.61572Q3.40849609375,5.730980000000001,4.02147309375,5.10379Q4.6337160937499995,4.47734,5.49658609375,4.47734Q5.67919609375,4.47734,5.80882609375,4.61019Q5.93915609375,4.74377,5.93915609375,4.93262Q5.93915609375,5.12148,5.808846093750001,5.25504Q5.67923609375,5.3878900000000005,5.49658609375,5.3878900000000005Q4.99910609375,5.3878900000000005,4.64653609375,5.74851Q4.29462909375,6.1084499999999995,4.29462909375,6.61572L4.29462909375,12.78662Q4.29462909375,13.2939,4.64655609375,13.6538Q4.99912609375,14.0145,5.49658609375,14.0145L12.50341609375,14.0145Q13.00085609375,14.0145,13.35339609375,13.6538Q13.70539609375,13.2939,13.70539609375,12.78662L13.70539609375,6.61572Q13.70539609375,6.1084700000000005,13.35339609375,5.74851Q13.00086609375,5.3878900000000005,12.50341609375,5.3878900000000005Q12.32080609375,5.3878900000000005,12.19117609375,5.25504Q12.06083609375,5.12146,12.06083609375,4.93262Q12.06083609375,4.74376,12.19115609375,4.61019Q12.32076609375,4.47734,12.50341609375,4.47734Q13.36629609375,4.47734,13.97849609375,5.10379Z" fill-rule="evenodd" fill="#868D9C" fill-opacity="1"/></g></g></svg>