<?xml version="1.0" encoding="utf-8"?>
<!-- Generator: Adobe Illustrator 26.0.0, SVG Export Plug-In . SVG Version: 6.00 Build 0)  -->
<svg version="1.1" id="图层_1" xmlns="http://www.w3.org/2000/svg" xmlns:xlink="http://www.w3.org/1999/xlink" x="0px" y="0px"
	 viewBox="0 0 149 84.6835938" style="enable-background:new 0 0 149 84.6835938;" xml:space="preserve">
<style type="text/css">
	.st0{fill:#EFF3FC;}
	.st1{fill:#858585;}
	.st2{fill:#CCCCCC;}
	.st3{fill:#3B3B3B;}
	.st4{fill:#E9EAFF;}
	.st5{fill:#5983FF;}
	.st6{fill:#FFFFFF;}
	.st7{fill-rule:evenodd;clip-rule:evenodd;fill:#FFFFFF;}
	.st8{fill-rule:evenodd;clip-rule:evenodd;fill:#3B3B3B;}
	.st9{fill-rule:evenodd;clip-rule:evenodd;fill:#5983FF;}
</style>
<g>
	<g>
		<g>
			<path class="st0" d="M129.7874298,84.4601822l0.0085907,0.0566025c0.0104065-0.0550995,0.0203094-0.1116028,0.0297089-0.1669998
				c0.0172882-0.0899048,0.032196-0.1797028,0.0463867-0.2701035c0.5601044-3.5317993,0.2519073-7.1471939-0.8978882-10.5327988
				c-0.2210083-0.6608963-0.472702-1.3097687-0.7551117-1.9463806c-1.0800934-2.4652405-2.6112137-4.7065201-4.5144043-6.6074753
				c-0.6179276-0.6335144-1.3229752-1.1754494-2.0937653-1.609375c-0.1132126-0.0599327-0.2269516-0.1169014-0.3433228-0.1694221
				c-0.7128525-0.3463898-1.5154419-0.4630165-2.2971268-0.3333244c-0.2840271,0.0533295-0.5592422,0.1458549-0.8178558,0.2750092
				c-0.0907516,0.0440369-0.1780777,0.0925217-0.2637863,0.144371c-1.0562286,0.6938477-1.7761383,1.7971191-1.9865494,3.0447617
				c-0.1484985,0.9207764-0.1145477,1.861618,0.0998993,2.7692032c0.0184174,0.086731,0.0381775,0.1729202,0.0594254,0.2591171
				c0.1520615,0.6046982,0.3430405,1.1990128,0.5718079,1.779068
				C118.9241104,77.0557861,123.8463516,82.2934875,129.7874298,84.4601822L129.7874298,84.4601822z"/>
		</g>
	</g>
	<g>
		<g>
			<path class="st1" d="M118.168129,63.1750488c1.7872314,2.5728531,3.4755707,5.2107544,5.0648956,7.9138336
				c1.5874405,2.7009201,3.071022,5.4596252,4.4508667,8.2758179c0.771965,1.5759048,1.5099564,3.1676025,2.2143631,4.7751007
				c0.0780029,0.1779022-0.1851044,0.3326035-0.2640076,0.1524048c-1.2579956-2.8695984-2.6231461-5.6889038-4.0954971-8.4577026
				c-1.4714661-2.7662888-3.0462036-5.4735489-4.7242584-8.1226196c-0.9389877-1.481842-1.909111-2.9433517-2.9104843-4.3842468
				c-0.1119308-0.1612053,0.1525345-0.3129883,0.2640533-0.1525879H118.168129z"/>
		</g>
	</g>
	<g>
		<g>
			<path class="st1" d="M116.2554398,69.1300888c1.3430023,1.7483597,3.3198776,2.8960724,5.5019836,3.1942444
				c0.6087875,0.0832291,1.225174,0.0954895,1.8367081,0.036499c0.195694-0.0184479,0.1970291,0.2868576,0.0030899,0.3053131
				c-2.2760162,0.1917801-4.5356293-0.5234833-6.2883072-1.9906464c-0.491684-0.4115677-0.933815-0.8788986-1.3176041-1.3929596
				C115.8738022,69.1259155,116.1387405,68.9745407,116.2554398,69.1300888L116.2554398,69.1300888z"/>
		</g>
	</g>
	<g>
		<g>
			<path class="st1" d="M127.7266922,78.6144638c0.3122635-0.4454956,0.5716782-0.926033,0.7730942-1.4316025
				c0.4600677-1.1529541,0.6233673-2.4031601,0.4748688-3.6355743c-0.2209778-0.6608658-0.4727173-1.3095932-0.7551422-1.9463425
				c-0.0348206,0.0510406-0.0401306,0.1164932-0.0141144,0.1725235c0.1989136,0.4776917,0.3419037,0.9765396,0.4260712,1.4870834
				c0.3023071,1.8205566-0.1173096,3.6874313-1.1694336,5.2025452c-0.027092,0.0336685-0.0347595,0.0789185-0.0202408,0.1195908
				c0.0239334,0.0540085,0.0746918,0.0911789,0.1333084,0.0977707
				C127.633728,78.6869278,127.6914673,78.6618729,127.7266922,78.6144638L127.7266922,78.6144638z"/>
		</g>
	</g>
	<g>
		<g>
			<path class="st1" d="M121.5656815,63.1900749c0.3675766,1.4672966,0.2581406,3.0137825-0.3124619,4.4144173
				c-0.0420837,0.0727158-0.1347885,0.0980377-0.2079239,0.0568314c-0.0713959-0.0431061-0.096405-0.1348114-0.0568085-0.2083435
				c0.5343704-1.3288498,0.633522-2.7934494,0.2831497-4.1825027c-0.0190201-0.0801315,0.0288391-0.1610718,0.1082306-0.182621
				C121.4591293,63.06604,121.5414124,63.1114235,121.5656815,63.1900749L121.5656815,63.1900749z"/>
		</g>
	</g>
	<g>
		<g>
			<path class="st0" d="M129.8253021,77.0864487l-0.0185547,0.0541c0.0346832-0.0438004,0.0696411-0.0891037,0.1037292-0.1340027
				c0.0569305-0.0714035,0.1118317-0.1440964,0.166275-0.2174988c2.1338043-2.8670044,3.537384-6.2121048,4.0892334-9.7453003
				c0.1107178-0.6880035,0.1886139-1.3796005,0.2338104-2.0747986c0.1868134-2.6858521-0.1298981-5.3828735-0.9336548-7.9520836
				c-0.2534637-0.8485985-0.6265259-1.656517-1.1078949-2.3995285c-0.0723572-0.1058502-0.1467133-0.2091484-0.2253876-0.3096199
				c-0.4706116-0.6386299-1.1273651-1.1151161-1.8796692-1.3642654c-0.2762909-0.0848465-0.562912-0.1309052-0.8518372-0.1369629
				c-0.1008148-0.0032349-0.2006378-0.0008087-0.3005066,0.0051155c-1.2571945,0.1229591-2.406395,0.7650948-3.1713028,1.7720718
				c-0.5583725,0.7461014-0.9646378,1.5952301-1.1955872,2.4985008c-0.0239029,0.0853882-0.0463867,0.1711807-0.0675278,0.2570992
				c-0.1458435,0.6064491-0.2522583,1.2216492-0.3186493,1.8417015
				C123.6386337,65.4747467,125.5686417,72.4034424,129.8253021,77.0864487L129.8253021,77.0864487z"/>
		</g>
	</g>
	<g>
		<g>
			<path class="st1" d="M129.4056549,52.8307037c0.3896332,3.1099358,0.6614227,6.2315941,0.8153687,9.3649635
				c0.1532745,3.1305199,0.1878967,6.2636223,0.1037903,9.3998222c-0.0471191,1.7546005-0.1315613,3.5076981-0.2532959,5.2589951
				c-0.013443,0.1939011-0.3182373,0.2085037-0.3045959,0.0121002c0.2167969-3.1267929,0.3152924-6.2585983,0.2954559-9.3956985
				c-0.0203705-3.1340942-0.1594543-6.2645493-0.4171295-9.3911896c-0.1442566-1.7492981-0.3256378-3.494709-0.5442505-5.2367401
				C129.0765991,52.6480827,129.3812561,52.6364975,129.4056549,52.8307037L129.4056549,52.8307037z"/>
		</g>
	</g>
	<g>
		<g>
			<path class="st1" d="M124.9514008,57.2141266c0.37854,2.1734085,1.5969238,4.1096382,3.3911438,5.3889275
				c0.500473,0.3568916,1.0406952,0.6545296,1.6096191,0.8868408c0.181839,0.074749,0.0413361,0.3459778-0.1389465,0.272049
				c-2.1044083-0.8894005-3.7737885-2.5741997-4.6456223-4.6888809c-0.2445602-0.5932503-0.419281-1.213028-0.5207901-1.8466797
				c-0.0314636-0.1935272,0.2733383-0.2043037,0.3045959-0.0121193V57.2141266z"/>
		</g>
	</g>
	<g>
		<g>
			<path class="st1" d="M130.7105713,70.9506073c0.483139-0.2492752,0.9356689-0.5540619,1.3484955-0.9082489
				c0.9420166-0.8067093,1.6663666-1.8377914,2.1065063-2.9984283c0.1107178-0.6879349,0.1886597-1.3796234,0.2337799-2.0748215
				c-0.0544281,0.0289536-0.0895844,0.0844421-0.0924377,0.1461258c-0.0453796,0.5155334-0.150177,1.0240707-0.3123627,1.5152359
				c-0.5765839,1.7528076-1.8138428,3.2106781-3.4481354,4.062912c-0.0395966,0.0172348-0.0673676,0.0538635-0.07341,0.0964279
				c-0.0037994,0.0591202,0.0238953,0.1156769,0.0727692,0.1488113S130.6573944,70.9761963,130.7105713,70.9506073
				L130.7105713,70.9506073z"/>
		</g>
	</g>
	<g>
		<g>
			<path class="st1" d="M132.4074707,54.42593c-0.3548889,1.4703941-1.1689606,2.789135-2.3237457,3.7639275
				c-0.0710602,0.0449791-0.1649017,0.0241089-0.2104797-0.046463c-0.0432281-0.0713768-0.0228577-0.1641693,0.0463104-0.2107697
				c1.0893707-0.9281883,1.8563995-2.1791878,2.1903076-3.5724182c0.0203705-0.0795937,0.100235-0.1288834,0.1804352-0.1111069
				C132.3705597,54.2668762,132.4223938,54.3451233,132.4074707,54.42593L132.4074707,54.42593z"/>
		</g>
	</g>
	<g>
		<g>
			<path class="st0" d="M129.6929169,84.4981842l-0.0446777,0.0354996c0.0528107-0.0182953,0.1066284-0.0374985,0.1594696-0.0569
				c0.08638-0.0297012,0.1716919-0.060997,0.2570648-0.0935974c3.3393402-1.2646027,6.3204346-3.326004,8.6849976-6.0052032
				c0.4632416-0.5199966,0.9007416-1.0606995,1.3125458-1.6221008c1.6013947-2.1623001,2.7845917-4.6056137,3.4886932-7.2040558
				c0.2425995-0.8516922,0.3627014-1.7336807,0.3565063-2.6193085c-0.0041046-0.128212-0.0112-0.2554855-0.023407-0.3827515
				c-0.0531921-0.791893-0.350296-1.547699-0.850296-2.1635742c-0.1871948-0.220459-0.4039001-0.4138565-0.644104-0.5749283
				c-0.0832977-0.0571022-0.1685944-0.1089516-0.2559967-0.1577072c-1.1253967-0.5746613-2.4389038-0.6535835-3.6247711-0.2177696
				c-0.8716431,0.3275337-1.6703949,0.8236809-2.3506775,1.4604301c-0.065979,0.0591202-0.1310425,0.1190491-0.1950836,0.180191
				c-0.4488983,0.4321747-0.8693085,0.8931732-1.2586823,1.3798981
				C130.7231903,71.3765564,128.6242828,78.2560883,129.6929169,84.4981842L129.6929169,84.4981842z"/>
		</g>
	</g>
	<g>
		<g>
			<path class="st1" d="M142.3809052,63.8335953c-1.3437042,2.8307571-2.7929993,5.6075058-4.3479004,8.3307877
				c-1.5539398,2.7201614-3.2093811,5.3789597-4.9663391,7.976059c-0.9830322,1.4529037-1.9966736,2.8843002-3.0408783,4.2945023
				c-0.1155243,0.1560974-0.380188,0.0037994-0.2631836-0.1541977c1.863739-2.517601,3.6305237-5.1034012,5.3004456-7.7573013
				c1.6679077-2.6519012,3.2337952-5.3646927,4.6976471-8.1379395c0.8189087-1.5515976,1.6045074-3.120575,2.3569946-4.7061157
				c0.0841064-0.1773682,0.3470001-0.022625,0.2631073,0.1542053H142.3809052z"/>
		</g>
	</g>
	<g>
		<g>
			<path class="st1" d="M136.2702789,65.124115c-0.8494873,2.0353546-0.8638306,4.3243103-0.0399323,6.3701706
				c0.2298126,0.5707626,0.5249329,1.1128311,0.879364,1.6155777c0.1130981,0.1610718-0.1510162,0.313797-0.2631836,0.1540756
				c-1.2950745-1.8845291-1.7958374-4.2048645-1.3934631-6.4569092c0.1129303-0.6317749,0.2988739-1.2481842,0.5540619-1.8371201
				C136.08461,64.7901154,136.3472595,64.9453964,136.2702789,65.124115L136.2702789,65.124115z"/>
		</g>
	</g>
	<g>
		<g>
			<path class="st1" d="M133.7387238,79.8055801c0.5410767,0.0506439,1.0862732,0.0379791,1.6244354-0.0375824
				c1.2275238-0.1715698,2.3922577-0.6496658,3.3870697-1.3901138c0.4632568-0.519989,0.9007416-1.0607147,1.3125305-1.6220398
				c-0.0614014-0.0051193-0.1209106,0.0227585-0.1564331,0.0732651c-0.3153534,0.4098129-0.6770782,0.7816544-1.0778656,1.1081085
				c-1.4281921,1.1658936-3.2546234,1.7268143-5.0897369,1.5630569c-0.0425568-0.0067444-0.0856476,0.0090179-0.1137238,0.041748
				c-0.0349426,0.0475388-0.0419769,0.1101608-0.0186157,0.1644363
				C133.629776,79.7607346,133.6801605,79.798439,133.7387238,79.8055801L133.7387238,79.8055801z"/>
		</g>
	</g>
	<g>
		<g>
			<path class="st1" d="M144.0528412,66.7967529c-1.0895691,1.0476456-2.4844055,1.7194061-3.9815369,1.9177856
				c-0.0822754,0.0110397-0.1515808-0.07798-0.152359-0.1527176c0.0019531-0.083374,0.069046-0.1505737,0.152359-0.1525955
				c1.4170074-0.1943359,2.7357025-0.8345871,3.7660522-1.8282242
				C143.9786377,66.4445724,144.1944275,66.6601868,144.0528412,66.7967529L144.0528412,66.7967529z"/>
		</g>
	</g>
	<g>
		<g>
			<path class="st2" d="M61.2297745,84.6833344h87.5404282c0.1268921,0,0.2297974-0.1030197,0.2297974-0.2301559
				s-0.1029053-0.2301636-0.2297974-0.2301636H61.2297745C61.1028519,84.2230148,61,84.3260422,61,84.4531784
				S61.1028519,84.6833344,61.2297745,84.6833344L61.2297745,84.6833344z"/>
		</g>
	</g>
</g>
<g>
	<g>
		<path class="st3" d="M110,78.0490112H8.5556641V0.0001831H110V78.0490112z M9.0556641,77.5490112H109.5V0.5001831H9.0556641
			V77.5490112z"/>
	</g>
</g>
<g>
	<g>
		<rect x="15.8888884" y="6.0975609" class="st4" width="88" height="65.853653"/>
	</g>
</g>
<g>
	<g>
		<rect x="8.5555553" y="0" class="st5" width="101.4444427" height="7.3170733"/>
	</g>
</g>
<g>
	<g>
		<rect y="46.341465" class="st5" width="40.3333321" height="20.7317085"/>
	</g>
</g>
<g>
	<g>
		<rect x="3.6666665" y="51.2195129" class="st6" width="12.2222233" height="10.9756088"/>
	</g>
</g>
<g>
	<g>
		<rect x="19.5556641" y="52.6583862" class="st6" width="13.4443359" height="1"/>
	</g>
</g>
<g>
	<g>
		<path class="st7" d="M29.9444561,57.2073212H19.5555553v-1h10.3889008V57.2073212z"/>
	</g>
</g>
<g>
	<g>
		<rect x="19.5556641" y="59.975769" class="st6" width="13.4443359" height="1"/>
	</g>
</g>
<g>
	<g>
		<path class="st6" d="M15.2737131,1.8292685h0.0081291c1.0102777,0,1.8292685,0.8189914,1.8292685,1.8292685l0,0
			c0,1.0102768-0.8189907,1.8292685-1.8292685,1.8292685h-0.0081291c-1.0102768,0-1.8292685-0.8189917-1.8292685-1.8292685l0,0
			C13.4444447,2.6482599,14.2634363,1.8292685,15.2737131,1.8292685z"/>
	</g>
</g>
<g>
	<g>
		<path class="st6" d="M21.3848228,1.8292685h0.008131c1.0102768,0,1.8292675,0.8189914,1.8292675,1.8292685l0,0
			c0,1.0102768-0.8189907,1.8292685-1.8292675,1.8292685h-0.008131c-1.0102768,0-1.8292675-0.8189917-1.8292675-1.8292685l0,0
			C19.5555553,2.6482599,20.3745461,1.8292685,21.3848228,1.8292685z"/>
	</g>
</g>
<g>
	<g>
		<rect x="8.5555553" y="23.1707325" class="st3" width="101.4444427" height="3.6585369"/>
	</g>
</g>
<g>
	<g>
		<path class="st8" d="M7.9555554,78.6487732h6.7111096v-1.1999969H9.1555557v-4.8878021H7.9555554V78.6487732z"/>
	</g>
</g>
<g transform="matrix(-1,0,0,1,220,0)">
	<g>
		<path class="st8" d="M109.4000015,78.6487732h6.7111053v-1.1999969h-5.5111084v-4.8878021h-1.1999969V78.6487732z"/>
	</g>
</g>
<g transform="matrix(-1,0,0,-1,220,12.195121765136719)">
	<g>
		<path class="st8" d="M109.4000015,12.1853609h6.7111053v-1.1999998h-5.5111084V6.0975609h-1.1999969V12.1853609z"/>
	</g>
</g>
<g transform="matrix(1,0,0,-1,0,12.195121765136719)">
	<g>
		<path class="st8" d="M7.9555554,12.1853609h6.7111096v-1.1999998H9.1555557V6.0975609H7.9555554V12.1853609z"/>
	</g>
</g>
<g>
	<g>
		<path class="st9" d="M38.9999962,55.5000038L39.5,55.5h64l0.5,0.0000038v-1.0000076L103.5,54.5h-64l-0.5000038-0.0000038
			V55.5000038z"/>
	</g>
</g>
<g>
	<g>
		<ellipse class="st6" cx="59.5" cy="36.5" rx="18.5" ry="18.5"/>
	</g>
	<g>
		<path d="M78,36.5c0,0.3027344-0.0074387,0.6053352-0.0223007,0.9077988
			c-0.0148697,0.3024025-0.0371399,0.6042366-0.066803,0.9055023c-0.0296631,0.3013344-0.0666962,0.6017342-0.1110992,0.9011993
			c-0.0444641,0.2994652-0.0962296,0.5976982-0.1552963,0.8946991c-0.0590668,0.2969322-0.1253662,0.5922318-0.1988983,0.8858986
			c-0.0736008,0.2937355-0.154335,0.5854683-0.2422028,0.8752022s-0.1828003,0.5771332-0.2847977,0.8621979
			c-0.102005,0.2850685-0.2109375,0.5674324-0.3268051,0.8471031c-0.1158676,0.2797318-0.238533,0.5564651-0.3679962,0.8302002
			c-0.1294632,0.2736664-0.2655716,0.5439987-0.4083023,0.810997c-0.1426697,0.267067-0.291832,0.5304337-0.4475021,0.7901001
			c-0.1556625,0.2596664-0.3175964,0.5153656-0.4857941,0.7671013c-0.1682053,0.2518005-0.3425064,0.4992676-0.5229034,0.7424011
			c-0.180336,0.2431984-0.3665314,0.4818306-0.5586014,0.7159004c-0.1920624,0.2340012-0.3897552,0.4631653-0.5930939,0.6875
			c-0.203331,0.2243309-0.4120331,0.4435654-0.6261063,0.6576996c-0.2141342,0.2140656-0.4333649,0.4227676-0.6576996,0.6260986
			c-0.2243271,0.2033348-0.4534988,0.4010315-0.6875,0.5931015c-0.2340622,0.1920662-0.4726944,0.3782654-0.7158966,0.5585976
			c-0.2431335,0.1804047-0.4906006,0.354702-0.7424011,0.5228996c-0.2517319,0.1682014-0.507431,0.3301315-0.7670975,0.4858017
			c-0.2596741,0.1556664-0.5230408,0.3048325-0.7901001,0.4474983c-0.2670059,0.1427345-0.5373383,0.2788315-0.8110046,0.4083023
			c-0.2737274,0.129467-0.5504608,0.2521324-0.8302002,0.368c-0.2796631,0.1158676-0.562027,0.2248001-0.8470993,0.3267975
			c-0.2850647,0.1020012-0.572464,0.1969376-0.8621979,0.2848015c-0.2897339,0.0878716-0.5814667,0.1685982-0.8752022,0.2421989
			c-0.2936668,0.0735359-0.5889664,0.1398354-0.8858986,0.1989021c-0.2970009,0.0590668-0.5952339,0.110836-0.8946991,0.1553001
			c-0.2994652,0.0444031-0.599865,0.0814362-0.9011993,0.1110992c-0.3012657,0.0296669-0.6030998,0.0519295-0.9055023,0.0667992
			C60.1053352,54.9925652,59.8027344,55,59.5,55s-0.6053352-0.0074348-0.9077988-0.0223007
			c-0.3024025-0.0148697-0.6042366-0.0371323-0.9055023-0.0667992c-0.3013344-0.0296631-0.6017342-0.0666962-0.9011993-0.1110992
			c-0.2994652-0.0444641-0.5976982-0.0962334-0.8946991-0.1553001c-0.2969322-0.0590668-0.5922318-0.1253662-0.8858986-0.1989021
			c-0.2937355-0.0736008-0.5854683-0.1543274-0.8752022-0.2421989c-0.2897339-0.0878639-0.5771332-0.1828003-0.8621979-0.2848015
			c-0.2850685-0.1019974-0.5674324-0.2109299-0.8471031-0.3267975c-0.2797318-0.1158676-0.5564651-0.238533-0.8302002-0.368
			c-0.2736664-0.1294708-0.544014-0.2655678-0.811039-0.4083023c-0.2670135-0.1426659-0.530365-0.291832-0.7900581-0.4474983
			c-0.259697-0.1556702-0.5154114-0.3176003-0.7671509-0.4858017c-0.2517395-0.1681976-0.4992027-0.342495-0.7423897-0.5228996
			c-0.2431831-0.1803322-0.4817924-0.3665314-0.7158394-0.5585976c-0.2340431-0.19207-0.4632301-0.3897667-0.687561-0.5931015
			c-0.2243347-0.203331-0.4435463-0.4120331-0.6576385-0.6260986c-0.2140884-0.2141342-0.4227943-0.4333687-0.6261215-0.6576996
			c-0.2033195-0.2243347-0.4010162-0.4534988-0.5930901-0.6875c-0.1920738-0.2340698-0.3782921-0.472702-0.558651-0.7159004
			c-0.1803589-0.2431335-0.3546448-0.4906006-0.52285-0.7424011c-0.1682053-0.2517357-0.3301353-0.5074348-0.4857903-0.7671013
			c-0.1556511-0.2596664-0.3048401-0.5230331-0.4475594-0.7901001c-0.1427269-0.2669983-0.2788086-0.5373306-0.4082603-0.810997
			c-0.1294518-0.273735-0.2521095-0.5504684-0.3679695-0.8302002c-0.1158676-0.2796707-0.2248001-0.5620346-0.3268013-0.8471031
			c-0.1019936-0.2850647-0.1969376-0.572464-0.2848244-0.8621979c-0.0878906-0.2897339-0.1686172-0.5814667-0.2421837-0.8752022
			c-0.0735664-0.2936668-0.1398811-0.5889664-0.1989479-0.8858986c-0.0590668-0.2970009-0.1108131-0.5952339-0.1552391-0.8946991
			c-0.0444221-0.2994652-0.0814743-0.599865-0.1111526-0.9011993c-0.0296745-0.3012657-0.0519409-0.6030998-0.0667953-0.9055023
			C41.0074272,37.1053352,41,36.8027344,41,36.5s0.0074272-0.6053352,0.0222855-0.9077988
			c0.0148544-0.3024025,0.0371208-0.6042366,0.0667953-0.9055023c0.0296783-0.3013344,0.0667305-0.6017342,0.1111526-0.9011993
			c0.044426-0.2994652,0.0961723-0.5976982,0.1552391-0.8946991c0.0590668-0.2969322,0.1253815-0.5922318,0.1989479-0.8858986
			c0.0735664-0.2937355,0.1542931-0.5854683,0.2421837-0.8752022c0.0878868-0.2897339,0.1828308-0.5771332,0.2848244-0.8621998
			c0.1020012-0.2850685,0.2109337-0.5674343,0.3268013-0.8470993c0.11586-0.2797356,0.2385178-0.556469,0.3679695-0.8302002
			c0.1294518-0.2736664,0.2655334-0.5440121,0.4082603-0.8110409c0.1427193-0.2670135,0.2919083-0.5303669,0.4475594-0.79006
			c0.1556549-0.2596931,0.317585-0.5154114,0.4857903-0.767149c0.1682053-0.2517414,0.3424911-0.4992027,0.52285-0.7423897
			c0.1803589-0.2431812,0.3665771-0.4817944,0.558651-0.7158413c0.1920738-0.2340393,0.3897705-0.4632263,0.5930901-0.6875591
			c0.2033272-0.2243328,0.4120331-0.4435463,0.6261215-0.6576405c0.2140923-0.2140884,0.4333038-0.4227924,0.6576385-0.6261196
			c0.2243309-0.2033195,0.4535179-0.4010181,0.687561-0.5930901c0.2340469-0.1920719,0.4726562-0.3782902,0.7158394-0.558651
			c0.243187-0.1803608,0.4906502-0.3546429,0.7423897-0.52285s0.5074539-0.3301353,0.7671509-0.4857883
			c0.2596931-0.1556549,0.5230446-0.3048401,0.7900581-0.4475613c0.267025-0.1427269,0.5373726-0.2788143,0.811039-0.4082603
			c0.273735-0.1294537,0.5504684-0.2521095,0.8302002-0.3679695c0.2796707-0.1158657,0.5620346-0.2247982,0.8471031-0.3267994
			c0.2850647-0.1019974,0.572464-0.1969376,0.8621979-0.2848263s0.5814667-0.1686153,0.8752022-0.2421818
			c0.2936668-0.0735664,0.5889664-0.139883,0.8858986-0.1989498c0.2970009-0.0590668,0.5952339-0.1108131,0.8946991-0.1552372
			c0.2994652-0.044426,0.599865-0.0814762,0.9011993-0.1111526c0.3012657-0.0296745,0.6030998-0.0519428,0.9055023-0.0667992
			C58.8946648,18.0074291,59.1972656,18,59.5,18s0.6053352,0.0074291,0.9077988,0.0222836
			c0.3024025,0.0148563,0.6042366,0.0371246,0.9055023,0.0667992c0.3013344,0.0296764,0.6017342,0.0667267,0.9011993,0.1111526
			c0.2994652,0.0444241,0.5976982,0.0961704,0.8946991,0.1552372c0.2969322,0.0590668,0.5922318,0.1253834,0.8858986,0.1989498
			c0.2937355,0.0735664,0.5854683,0.1542931,0.8752022,0.2421818s0.5771332,0.1828289,0.8621979,0.2848263
			c0.2850723,0.1020012,0.5674362,0.2109337,0.8470993,0.3267994c0.2797394,0.11586,0.5564728,0.2385159,0.8302002,0.3679695
			c0.2736664,0.129446,0.5439987,0.2655334,0.8110046,0.4082603c0.2670593,0.1427212,0.530426,0.2919064,0.7901001,0.4475613
			c0.2596664,0.155653,0.5153656,0.3175812,0.7670975,0.4857883c0.2518005,0.1682072,0.4992676,0.3424892,0.7424011,0.52285
			c0.2432022,0.1803608,0.4818344,0.3665791,0.7158966,0.558651c0.2340012,0.1920719,0.4631729,0.3897705,0.6875,0.5930901
			c0.2243347,0.2033272,0.4435654,0.4120312,0.6576996,0.6261196c0.2140732,0.2140942,0.4227753,0.4333076,0.6261063,0.6576405
			c0.2033386,0.2243328,0.4010315,0.4535198,0.5930939,0.6875591c0.19207,0.2340469,0.3782654,0.4726601,0.5586014,0.7158413
			c0.180397,0.243187,0.3546982,0.4906483,0.5229034,0.7423897c0.1681976,0.2517376,0.3301315,0.5074558,0.4857941,0.767149
			c0.1556702,0.2596931,0.3048325,0.5230465,0.4475021,0.79006c0.1427307,0.2670288,0.2788391,0.5373745,0.4083023,0.8110409
			c0.1294632,0.2737312,0.2521286,0.5504646,0.3679962,0.8302002c0.1158676,0.279665,0.2248001,0.5620308,0.3268051,0.8470993
			c0.1019974,0.2850666,0.1969299,0.5724659,0.2847977,0.8621998s0.168602,0.5814667,0.2422028,0.8752022
			c0.0735321,0.2936668,0.1398315,0.5889664,0.1988983,0.8858986c0.0590668,0.2970009,0.1108322,0.5952339,0.1552963,0.8946991
			c0.0444031,0.2994652,0.0814362,0.599865,0.1110992,0.9011993c0.0296631,0.3012657,0.0519333,0.6030998,0.066803,0.9055023
			C77.9925613,35.8946648,78,36.1972656,78,36.5z M77.5,36.5c0-0.2945976-0.0072327-0.5890007-0.021698-0.8832016
			c-0.014473-0.2942657-0.0361404-0.5879631-0.0650024-0.8810997c-0.028862-0.2931976-0.0649033-0.5854645-0.1081009-0.8768005
			c-0.0432663-0.2913971-0.0936279-0.5815659-0.1511002-0.8704987c-0.0574646-0.2889328-0.1219635-0.5762634-0.1934967-0.8619995
			c-0.0716019-0.285799-0.1501694-0.5696316-0.2357025-0.8514996c-0.0855331-0.2819347-0.1778946-0.5615673-0.2770996-0.8388996
			c-0.0992661-0.277401-0.2052689-0.5521679-0.3180008-0.8243008s-0.2320633-0.5413666-0.3580017-0.8076992
			c-0.1259308-0.2662659-0.2583313-0.5293026-0.3971939-0.7891006c-0.1388702-0.2598267-0.2840347-0.516077-0.4355011-0.7687511
			c-0.1514664-0.2526722-0.3090363-0.5014744-0.472702-0.7464085c-0.1635971-0.2449398-0.333168-0.4857178-0.5086975-0.7223301
			c-0.1754684-0.2366066-0.356636-0.468771-0.5435028-0.6964912c-0.1868668-0.2277145-0.3792343-0.4507065-0.5771027-0.6689796
			c-0.1977997-0.2182732-0.4008713-0.4315605-0.6091995-0.6398602c-0.2082672-0.2083073-0.4215317-0.4113712-0.639801-0.6091995
			c-0.2182617-0.1978321-0.4412689-0.3901901-0.6689987-0.5770702c-0.2277298-0.1868782-0.4598999-0.3680611-0.6964951-0.5435505
			c-0.2366028-0.175478-0.4773712-0.3450489-0.7223053-0.508709c-0.2449341-0.1636677-0.4937668-0.3212204-0.7464981-0.4726601
			c-0.2526627-0.1514473-0.5088959-0.2966042-0.7686996-0.4354706c-0.2597961-0.1388664-0.5228348-0.2712765-0.7891006-0.3972301
			c-0.2663345-0.125946-0.5355682-0.245285-0.8077011-0.3580189c-0.2721252-0.1127338-0.5468979-0.2187195-0.824295-0.3179607
			c-0.2773285-0.099247-0.5569687-0.1916275-0.8389053-0.2771397c-0.281868-0.0855141-0.5656967-0.1640568-0.8514977-0.23563
			c-0.2857361-0.0715809-0.5730667-0.1361046-0.8619995-0.1935749c-0.2889328-0.0574722-0.5791016-0.1078186-0.8704987-0.1510429
			c-0.2913361-0.0432243-0.5836029-0.0792732-0.8768005-0.1081467c-0.2931366-0.0288754-0.5868301-0.050539-0.8810997-0.0649929
			C60.0890007,18.5072269,59.7945976,18.5,59.5,18.5s-0.5890007,0.0072269-0.8832016,0.0216827
			c-0.2942696,0.0144539-0.5879631,0.0361176-0.8810997,0.0649929c-0.2931976,0.0288734-0.5854645,0.0649223-0.8768005,0.1081467
			c-0.2913971,0.0432243-0.5815659,0.0935707-0.8704987,0.1510429c-0.2889328,0.0574703-0.5762634,0.121994-0.8619995,0.1935749
			c-0.2857971,0.0715733-0.5696335,0.150116-0.8515015,0.23563c-0.2819328,0.0855122-0.5615654,0.1778927-0.8388977,0.2771397
			c-0.277401,0.0992413-0.552166,0.2052269-0.8243027,0.3179607c-0.2721329,0.1127338-0.5413666,0.2320728-0.8076973,0.3580189
			c-0.2662697,0.1259537-0.5293007,0.2583637-0.7891006,0.3972301c-0.2598228,0.1388664-0.5160751,0.2840195-0.7687492,0.435461
			c-0.2526703,0.1514454-0.5014763,0.3090019-0.7464104,0.4726696c-0.2449379,0.16366-0.4857178,0.333231-0.722332,0.508709
			c-0.2366066,0.1754894-0.4687691,0.3566723-0.6964874,0.5435505c-0.2277145,0.1868801-0.4507065,0.3792381-0.6689796,0.5770702
			c-0.218277,0.1978283-0.4315643,0.4008923-0.6398621,0.6091995c-0.2083092,0.2082996-0.4113731,0.421587-0.6091995,0.6398602
			c-0.197834,0.2182732-0.3901901,0.4412651-0.5770683,0.6689796c-0.186882,0.2277203-0.3680687,0.4598846-0.5435524,0.6964912
			c-0.1754799,0.2366123-0.3450508,0.4773903-0.508709,0.7223301c-0.1636658,0.2449341-0.3212204,0.4937363-0.4726601,0.7464085
			c-0.1514473,0.2526741-0.2966042,0.5089245-0.4354706,0.7687511c-0.1388664,0.259798-0.2712746,0.5228348-0.3972282,0.7891006
			c-0.125946,0.2663326-0.2452927,0.5355663-0.3580208,0.8076992c-0.1127357,0.2721329-0.2187233,0.5468998-0.3179588,0.8243008
			c-0.0992508,0.2773323-0.1916275,0.5569649-0.2771416,0.8388996c-0.0855141,0.281868-0.1640587,0.5657005-0.23563,0.8514996
			c-0.071579,0.2857361-0.1361046,0.5730667-0.1935768,0.8619995c-0.0574684,0.2889328-0.1078148,0.5791016-0.1510391,0.8704987
			c-0.0432243,0.2913361-0.0792732,0.5836029-0.1081505,0.8768005c-0.0288734,0.2931366-0.0505371,0.586834-0.064991,0.8810997
			C41.5072289,35.9109993,41.5,36.2054024,41.5,36.5s0.0072289,0.5890007,0.0216827,0.8832016
			c0.0144539,0.2942657,0.0361176,0.5879631,0.064991,0.8810997c0.0288773,0.2931976,0.0649261,0.5854645,0.1081505,0.8768005
			c0.0432243,0.2913971,0.0935707,0.5815659,0.1510391,0.8704987c0.0574722,0.2889328,0.1219978,0.5762634,0.1935768,0.8619995
			c0.0715714,0.2857971,0.150116,0.5696335,0.23563,0.8515015c0.0855141,0.2819328,0.1778908,0.5615654,0.2771416,0.8388977
			c0.0992355,0.277401,0.2052231,0.552166,0.3179588,0.8243027c0.1127281,0.2721329,0.2320747,0.5413666,0.3580208,0.8076973
			c0.1259537,0.2662697,0.2583618,0.5293007,0.3972282,0.7891006c0.1388664,0.2598038,0.2840195,0.5160332,0.4354591,0.7686996
			c0.1514473,0.2527313,0.3090057,0.5015678,0.4726715,0.7465019c0.1636581,0.2449341,0.3332291,0.4856949,0.508709,0.7222977
			c0.1754837,0.236599,0.3566704,0.4687653,0.5435524,0.6965027c0.1868782,0.2277336,0.3792343,0.4507294,0.5770683,0.6689987
			c0.1978264,0.2182655,0.4008904,0.4315338,0.6091995,0.639801c0.2082977,0.2083321,0.4215851,0.4113998,0.6398621,0.6091995
			c0.2182732,0.1978683,0.4412651,0.3902359,0.6689796,0.5770988c0.2277184,0.1868629,0.4598808,0.3680305,0.6964874,0.543499
			c0.2366142,0.1755371,0.4773941,0.3451004,0.722332,0.5087013c0.2449341,0.1636658,0.4937401,0.3212318,0.7464104,0.4726982
			c0.2526741,0.1514664,0.5089264,0.2966347,0.7687492,0.4355011c0.2598,0.1388702,0.522831,0.2712708,0.7891006,0.3972015
			c0.2663307,0.1259346,0.5355644,0.2452698,0.8076973,0.3579979c0.2721367,0.1127357,0.5469017,0.2187309,0.8243027,0.3180008
			c0.2773323,0.0991974,0.5569649,0.1915627,0.8388977,0.2770996c0.281868,0.085537,0.5657043,0.1640968,0.8515015,0.2357025
			c0.2857361,0.0715332,0.5730667,0.1360321,0.8619995,0.1934967c0.2889328,0.0574684,0.5791016,0.1078339,0.8704987,0.1511002
			c0.2913361,0.0432014,0.5836029,0.0792313,0.8768005,0.1081009c0.2931366,0.0288696,0.5868301,0.0505333,0.8810997,0.0649986
			C58.9109993,54.4927673,59.2054024,54.5,59.5,54.5s0.5890007-0.0072327,0.8832016-0.0217018
			c0.2942696-0.0144653,0.5879631-0.036129,0.8810997-0.0649986c0.2931976-0.0288696,0.5854645-0.0648994,0.8768005-0.1081009
			c0.2913971-0.0432663,0.5815659-0.0936317,0.8704987-0.1511002c0.2889328-0.0574646,0.5762634-0.1219635,0.8619995-0.1934967
			c0.2858009-0.0716057,0.5696297-0.1501656,0.8514977-0.2357025c0.2819366-0.085537,0.5615768-0.1779022,0.8389053-0.2770996
			c0.2773972-0.0992699,0.5521698-0.205265,0.824295-0.3180008c0.2721329-0.1127281,0.5413666-0.2320633,0.8077011-0.3579979
			c0.2662659-0.1259308,0.5293045-0.2583313,0.7891006-0.3972015c0.2598038-0.1388664,0.516037-0.2840347,0.7686996-0.4355011
			c0.2527313-0.1514664,0.501564-0.3090324,0.7464981-0.4726982c0.2449341-0.1636009,0.4857025-0.3331642,0.7223053-0.5087013
			c0.2365952-0.1754684,0.4687653-0.356636,0.6964951-0.543499s0.450737-0.3792305,0.6689987-0.5770988
			c0.2182693-0.1977997,0.4315338-0.4008675,0.639801-0.6091995c0.2083282-0.2082672,0.4113998-0.4215355,0.6091995-0.639801
			c0.1978683-0.2182693,0.3902359-0.4412651,0.5771027-0.6689987c0.1868668-0.2277374,0.3680344-0.4599037,0.5435028-0.6965027
			c0.1755295-0.2366028,0.3451004-0.4773636,0.5086975-0.7222977c0.1636658-0.2449341,0.3212357-0.4937706,0.472702-0.7465019
			c0.1514664-0.2526665,0.2966309-0.5088959,0.4355011-0.7686996c0.1388626-0.2598,0.2712631-0.522831,0.3971939-0.7891006
			c0.1259384-0.2663307,0.2452698-0.5355644,0.3580017-0.8076973c0.1127319-0.2721367,0.2187347-0.5469017,0.3180008-0.8243027
			c0.099205-0.2773323,0.1915665-0.5569649,0.2770996-0.8388977c0.0855331-0.281868,0.1641006-0.5657043,0.2357025-0.8515015
			c0.0715332-0.2857361,0.1360321-0.5730667,0.1934967-0.8619995c0.0574722-0.2889328,0.1078339-0.5791016,0.1511002-0.8704987
			c0.0431976-0.2913361,0.0792389-0.5836029,0.1081009-0.8768005c0.028862-0.2931366,0.0505295-0.586834,0.0650024-0.8810997
			C77.4927673,37.0890007,77.5,36.7945976,77.5,36.5z"/>
	</g>
</g>
<g>
	<g>
		<path class="st5" d="M58.2999992,38.1500015C58.5,38.7799988,58.9000015,39.2000008,59.5,39.2000008
			s1-0.420002,1.2000008-1.0499992L61.5,26.6000004c0-1.2600002-1-2.1000004-2-2.1000004c-1.2000008,0-2,1.0499992-2,2.3099995
			L58.2999992,38.1500015z M59.5,41.2999992c-1.2000008,0-2,0.8400002-2,2.1000023C57.5,44.6599998,58.2999992,45.5,59.5,45.5
			s2-0.8400002,2-2.0999985C61.5,42.1399994,60.7000008,41.2999992,59.5,41.2999992z"/>
	</g>
</g>
</svg>
