<svg xmlns="http://www.w3.org/2000/svg" xmlns:xlink="http://www.w3.org/1999/xlink" fill="none" version="1.1" width="14" height="14" viewBox="0 0 14 14"><defs><clipPath id="master_svg0_75_93978"><rect x="0" y="0" width="14" height="14" rx="0"/></clipPath></defs><g clip-path="url(#master_svg0_75_93978)"><g><path d="M7.4288,7.05358L7.4288,1.428559C7.4288,1.191879,7.23488,1,6.99819,1C6.7615,1,6.56758,1.191879,6.56758,1.428559L6.56758,7.0544C5.83216,7.24527,5.28436,7.91602,5.28436,8.71426C5.28436,9.51371,5.83109,10.18529,6.57135,10.37499C6.56898,10.39278,6.56772,10.4107,6.56758,10.42864L6.56758,12.5714C6.56758,12.8081,6.7615,13,6.99819,13C7.23488,13,7.4288,12.8081,7.4288,12.5714L7.4288,10.42864C7.42846,10.41098,7.42703,10.39335,7.42454,10.37586C8.16639,10.18717,8.71564,9.51468,8.71564,8.71436C8.715779999999999,7.91491,8.16906,7.24338,7.4288,7.05358ZM7.60588,9.32033C7.20733,9.71887,6.53921,9.63092,6.25738,9.14283C5.97556,8.65473,6.23343,8.032160000000001,6.77786,7.88628C7.3223,7.7404,7.85694,8.15061,7.85694,8.71421C7.85758,8.941690000000001,7.76718,9.15997,7.60588,9.32038L7.60588,9.32033ZM3.13814,2.76789C3.14056,2.75012,3.14187,2.73222,3.14206,2.71429L3.14206,1.428559C3.14206,1.192086,2.9503500000000003,1.000387057,2.71387,1.000387057C2.4773899999999998,1.000387057,2.28568,1.192086,2.28568,1.428559L2.28568,2.71429C2.28535,2.73245,2.2861599999999997,2.75061,2.2881,2.76867C1.547841,2.95832,0.999999897816,3.62985,1,4.42939C1.000000102184,5.22894,1.5479370000000001,5.90018,2.2882,6.09007C2.2862999999999998,6.10758,2.2854799999999997,6.1252,2.28573,6.14281L2.28573,12.5714C2.28573,12.8079,2.47744,12.9996,2.71392,12.9996C2.9504,12.9996,3.14211,12.8079,3.14211,12.5714L3.14211,6.14286C3.14191,6.12546,3.14067,6.10809,3.13838,6.09085C3.88019,5.90216,4.428850000000001,5.22966,4.428850000000001,4.42939C4.428850000000001,3.62912,3.88005,2.95648,3.13814,2.76789ZM3.31997,5.03551C2.92142,5.43405,2.2533000000000003,5.3461,1.971472,4.85801C1.689647,4.36991,1.947523,3.74734,2.49195,3.60146C3.03638,3.45558,3.57102,3.86579,3.57102,4.42939C3.57166,4.65686,3.48125,4.875109999999999,3.31997,5.03551ZM13,4.42939C13,3.62883,12.4502,2.95648,11.7082,2.76789C11.7101,2.75009,11.7108,2.73219,11.7105,2.71429L11.7105,1.428559C11.7105,1.192086,11.5188,1.000386955,11.2823,1.000386955C11.0458,1.000386955,10.85412,1.192086,10.85412,1.428559L10.85412,2.71429C10.85431,2.73248,10.85565,2.7506399999999998,10.85813,2.76867C10.11787,2.95832,9.57081,3.62985,9.57081,4.42939C9.57081,5.22894,10.11753,5.90042,10.85779,6.09012C10.85543,6.10788,10.85417,6.12577,10.85402,6.14368L10.85402,12.5714C10.85402,12.8079,11.0457,12.9996,11.2822,12.9996C11.5187,12.9996,11.7104,12.8079,11.7104,12.5714L11.7104,6.14368C11.7107,6.12606,11.71,6.10843,11.7082,6.0909C12.4503,5.90226,13,5.22991,13,4.42939ZM11.8917,5.03546C11.4932,5.43394,10.8251,5.34593,10.54334,4.85783C10.26158,4.36974,10.5195,3.74723,11.0639,3.60141C11.6083,3.45555,12.1428,3.86579,12.1428,4.42939C12.1435,4.65685,12.053,4.87509,11.8917,5.03546Z" fill="#3D3D3D" fill-opacity="1" style="mix-blend-mode:passthrough"/></g></g></svg>