<svg xmlns="http://www.w3.org/2000/svg" xmlns:xlink="http://www.w3.org/1999/xlink" fill="none" version="1.1" width="14" height="14" viewBox="0 0 14 14"><g><g><path d="M3.7001932106018067,10.299836507720947C1.8777482106018066,8.477386507720947,1.8777482106018066,5.522616507720947,3.7001932106018067,3.7001665077209474C5.463793210601807,1.9365655077209474,8.287783210601805,1.8796215077209473,10.119863210601807,3.5293365077209473C10.119863210601807,3.5293365077209473,9.887383210601806,3.5293365077209473,9.887383210601806,3.5293365077209473C9.565213210601806,3.5293365077209473,9.304043210601806,3.790506507720947,9.304043210601806,4.112666507720947C9.304043210601806,4.434836507720947,9.565213210601806,4.696006507720947,9.887383210601806,4.696006507720947C9.887383210601806,4.696006507720947,11.537293210601806,4.696006507720947,11.537293210601806,4.696006507720947C11.859493210601807,4.696006507720947,12.120593210601807,4.434836507720947,12.120593210601807,4.112666507720947C12.120593210601807,4.112666507720947,12.120593210601807,2.4627565077209472,12.120593210601807,2.4627565077209472C12.120593210601807,2.140588507720947,11.859493210601807,1.8794215077209473,11.537293210601806,1.8794215077209473C11.215093210601808,1.8794215077209473,10.953963210601806,2.140588507720947,10.953963210601806,2.4627565077209472C10.953963210601806,2.4627565077209472,10.953963210601806,2.711036507720947,10.953963210601806,2.711036507720947C8.665683210601806,0.5985335077209473,5.097193210601807,0.6532575077209473,2.875233210601807,2.8752065077209474C0.5971782106018066,5.153266507720947,0.5971782106018066,8.846726507720948,2.875233210601807,11.124786507720946C5.153293210601807,13.402866507720947,8.846753210601808,13.402866507720947,11.124813210601806,11.124786507720946C12.105693210601807,10.143926507720947,12.664693210601806,8.899156507720948,12.800593210601807,7.619086507720947C12.834593210601806,7.298716507720947,12.602493210601807,7.011436507720947,12.282093210601806,6.977426507720947C11.961693210601807,6.9434065077209475,11.674493210601806,7.175546507720948,11.640493210601807,7.495906507720948C11.531693210601807,8.520266507720947,11.085253210601806,9.514436507720948,10.299853210601807,10.299836507720947C8.477413210601807,12.122266507720948,5.522643210601807,12.122266507720948,3.7001932106018067,10.299836507720947Z" fill-rule="evenodd" fill="#32374A" fill-opacity="1"/></g></g></svg>