<svg xmlns="http://www.w3.org/2000/svg" xmlns:xlink="http://www.w3.org/1999/xlink" fill="none" version="1.1" width="14" height="14" viewBox="0 0 14 14"><defs><clipPath id="master_svg0_75_93986"><rect x="0" y="0" width="14" height="14" rx="0"/></clipPath></defs><g clip-path="url(#master_svg0_75_93986)"><g><path d="M12.7489,4.857139999999999L9.14286,1.251143C8.98203,1.0903376,8.764050000000001,1,8.53686,1L1.857143,1C1.383756,1,1,1.383756,1,1.857143L1,12.1429C1,12.6162,1.383756,13,1.857143,13L12.1429,13C12.6162,13,13,12.6162,13,12.1429L13,5.46314C13,5.23583,12.9096,5.01785,12.7489,4.857139999999999ZM3.57143,1.857143L4.21429,1.857143L4.21429,4L3.57143,4L3.57143,1.857143ZM5.07143,1.857143L7,1.857143L7,4L5.07143,4L5.07143,1.857143ZM3.57143,12.1429L3.57143,9.57143L10.42857,9.57143L10.42857,12.1429L3.57143,12.1429ZM12.1429,12.1429L11.2857,12.1429L11.2857,9.14286C11.2857,8.90616,11.0938,8.71429,10.85714,8.71429L3.14286,8.71429C2.90616,8.71429,2.71429,8.90616,2.71429,9.14286L2.71429,12.1429L1.857143,12.1429L1.857143,1.857143L2.71429,1.857143L2.71429,4.428570000000001C2.71429,4.66527,2.90616,4.857139999999999,3.14286,4.857139999999999L7.42857,4.857139999999999C7.66526,4.857139999999999,7.85714,4.66527,7.85714,4.428570000000001L7.85714,1.857143L8.53686,1.857143L12.1429,5.46314L12.1429,12.1429Z" fill="#3D3D3D" fill-opacity="1" style="mix-blend-mode:passthrough"/></g></g></svg>