<svg xmlns="http://www.w3.org/2000/svg" xmlns:xlink="http://www.w3.org/1999/xlink" fill="none" version="1.1" width="32" height="32" viewBox="0 0 32 32"><defs><clipPath id="master_svg0_25_00932"><rect x="0" y="0" width="32" height="32" rx="0"/></clipPath></defs><g clip-path="url(#master_svg0_25_00932)"><g><path d="M32.00000203857422,19.28938515625L7.907402038574219,8.42218515625L7.907402038574219,1.27978515625L32.00000203857422,12.13418515625L32.00000203857422,19.28938515625Z" fill="#3668F6" fill-opacity="1" style="mix-blend-mode:passthrough"/></g><g><path d="M31.99999650878906,3.7248L31.99999650878906,10.8544L23.738296508789062,7.1424L23.738296508789062,0L31.99999650878906,3.7248Z" fill="#3668F6" fill-opacity="1" style="mix-blend-mode:passthrough"/></g><g><path d="M23.738296447753907,0L23.738296447753907,7.1296L15.814796447753906,3.5712L23.738296447753907,0Z" fill="#839CED" fill-opacity="1" style="mix-blend-mode:passthrough"/></g><g><path d="M8.277801513671875,24.857421875L8.277801513671875,31.987021875L16.185201513671874,28.415821875L8.277801513671875,24.857421875Z" fill="#839CED" fill-opacity="1" style="mix-blend-mode:passthrough"/></g><g><path d="M8.27781,24.870796093750002L8.27781,32.00039609375L0,28.288396093750002L0,21.14599609375L8.27781,24.870796093750002Z" fill="#3668F6" fill-opacity="1" style="mix-blend-mode:passthrough"/></g><g><path d="M24.0926,30.72004921875L0,19.86564921875L0,12.71044921875L24.0926,23.57764921875L24.0926,30.72004921875Z" fill="#3668F6" fill-opacity="1" style="mix-blend-mode:passthrough"/></g><g><path d="M0,4.85098515625L0,11.98058515625L7.9074,8.42218515625L7.9074,1.27978515625L0,4.85098515625Z" fill="#1F47BA" fill-opacity="1" style="mix-blend-mode:passthrough"/></g><g><path d="M31.99999796142578,20.01953125L24.09259796142578,23.59073125L24.09259796142578,30.72033125L31.99999796142578,27.161931250000002L31.99999796142578,20.01953125Z" fill="#1F47BA" fill-opacity="1" style="mix-blend-mode:passthrough"/></g></g></svg>